<svg width="13" height="14" viewBox="0 0 13 14" fill="none" xmlns="http://www.w3.org/2000/svg">
<mask id="path-1-outside-1_447_372" maskUnits="userSpaceOnUse" x="-0.205322" y="0.557373" width="13" height="13" fill="black">
<rect fill="white" x="-0.205322" y="0.557373" width="13" height="13"/>
<path d="M6.27925 1.55737C5.19449 1.55737 4.1341 1.87903 3.23216 2.48167C2.33026 3.08434 1.62729 3.94092 1.21215 4.94307C0.797048 5.94525 0.688438 7.04802 0.900075 8.1119C1.11168 9.17582 1.63402 10.1531 2.40106 10.9201C3.1681 11.6871 4.14537 12.2095 5.20926 12.4211C6.27316 12.6327 7.37591 12.5241 8.37807 12.109C9.38026 11.6939 10.2368 10.9909 10.8395 10.089C11.4421 9.18705 11.7638 8.12667 11.7638 7.04193C11.7638 5.58732 11.186 4.19232 10.1574 3.16377C9.12884 2.1352 7.73384 1.55737 6.27925 1.55737ZM8.79608 9.46687C8.77276 9.50562 8.74193 9.53935 8.70546 9.5661C8.66896 9.59284 8.62752 9.61206 8.58352 9.62265C8.53955 9.63323 8.49389 9.63497 8.44922 9.62776C8.40455 9.62055 8.36177 9.60456 8.32335 9.58068C7.03649 8.79278 5.41694 8.61769 3.50851 9.05103C3.46508 9.0614 3.42006 9.06304 3.376 9.05583C3.33197 9.04865 3.28976 9.03279 3.25192 9.00919C3.21404 8.98557 3.18124 8.95467 3.1554 8.91827C3.12955 8.88187 3.11124 8.8407 3.10144 8.79716C3.09101 8.75348 3.08935 8.70817 3.09646 8.66381C3.10361 8.61946 3.11941 8.57698 3.14299 8.53874C3.16657 8.50054 3.19748 8.46736 3.23389 8.44109C3.27032 8.41483 3.31158 8.396 3.35529 8.3857C5.4432 7.90859 7.23782 8.11432 8.6823 8.99851C8.75936 9.04563 8.81462 9.12139 8.83593 9.20916C8.85728 9.29696 8.84295 9.38962 8.79608 9.46687ZM9.4658 7.97424C9.40464 8.06835 9.30965 8.13533 9.2005 8.1614C9.09134 8.18747 8.97635 8.17061 8.87926 8.11432C7.21498 7.18593 5.25023 6.9561 3.41659 7.47525C3.35954 7.50708 3.29607 7.52571 3.23089 7.5298C3.16567 7.53389 3.10039 7.52333 3.0398 7.4989C2.97921 7.47447 2.92487 7.43682 2.88075 7.38864C2.83662 7.34049 2.80382 7.28303 2.78477 7.22056C2.76572 7.15806 2.7609 7.09211 2.77067 7.02752C2.78043 6.96292 2.80452 6.90135 2.84118 6.84728C2.87784 6.79321 2.92615 6.74805 2.98253 6.71506C3.03894 6.6821 3.10199 6.66215 3.16708 6.65674C4.19055 6.36212 5.26258 6.27499 6.32019 6.40055C7.3778 6.52607 8.39967 6.8617 9.32573 7.38773C9.41982 7.44889 9.4868 7.54386 9.51286 7.653C9.53893 7.76218 9.52208 7.87717 9.4658 7.97424ZM9.52269 6.42037C7.77184 5.36985 4.84355 5.27355 3.15396 5.78568C3.02394 5.82517 2.88355 5.81136 2.76371 5.74731C2.64387 5.6833 2.55437 5.57429 2.5149 5.44426C2.47543 5.31426 2.48922 5.17387 2.55326 5.05401C2.61726 4.93419 2.72628 4.84468 2.8563 4.80522C4.7954 4.21868 8.01258 4.33248 10.048 5.53618C10.1526 5.61107 10.2252 5.7226 10.2514 5.8486C10.2775 5.97458 10.2553 6.10579 10.1891 6.21616C10.1229 6.32649 10.0175 6.40785 9.89408 6.44406C9.77061 6.4803 9.638 6.46872 9.52269 6.41162V6.42037Z"/>
</mask>
<path d="M6.27925 1.55737C5.19449 1.55737 4.1341 1.87903 3.23216 2.48167C2.33026 3.08434 1.62729 3.94092 1.21215 4.94307C0.797048 5.94525 0.688438 7.04802 0.900075 8.1119C1.11168 9.17582 1.63402 10.1531 2.40106 10.9201C3.1681 11.6871 4.14537 12.2095 5.20926 12.4211C6.27316 12.6327 7.37591 12.5241 8.37807 12.109C9.38026 11.6939 10.2368 10.9909 10.8395 10.089C11.4421 9.18705 11.7638 8.12667 11.7638 7.04193C11.7638 5.58732 11.186 4.19232 10.1574 3.16377C9.12884 2.1352 7.73384 1.55737 6.27925 1.55737ZM8.79608 9.46687C8.77276 9.50562 8.74193 9.53935 8.70546 9.5661C8.66896 9.59284 8.62752 9.61206 8.58352 9.62265C8.53955 9.63323 8.49389 9.63497 8.44922 9.62776C8.40455 9.62055 8.36177 9.60456 8.32335 9.58068C7.03649 8.79278 5.41694 8.61769 3.50851 9.05103C3.46508 9.0614 3.42006 9.06304 3.376 9.05583C3.33197 9.04865 3.28976 9.03279 3.25192 9.00919C3.21404 8.98557 3.18124 8.95467 3.1554 8.91827C3.12955 8.88187 3.11124 8.8407 3.10144 8.79716C3.09101 8.75348 3.08935 8.70817 3.09646 8.66381C3.10361 8.61946 3.11941 8.57698 3.14299 8.53874C3.16657 8.50054 3.19748 8.46736 3.23389 8.44109C3.27032 8.41483 3.31158 8.396 3.35529 8.3857C5.4432 7.90859 7.23782 8.11432 8.6823 8.99851C8.75936 9.04563 8.81462 9.12139 8.83593 9.20916C8.85728 9.29696 8.84295 9.38962 8.79608 9.46687ZM9.4658 7.97424C9.40464 8.06835 9.30965 8.13533 9.2005 8.1614C9.09134 8.18747 8.97635 8.17061 8.87926 8.11432C7.21498 7.18593 5.25023 6.9561 3.41659 7.47525C3.35954 7.50708 3.29607 7.52571 3.23089 7.5298C3.16567 7.53389 3.10039 7.52333 3.0398 7.4989C2.97921 7.47447 2.92487 7.43682 2.88075 7.38864C2.83662 7.34049 2.80382 7.28303 2.78477 7.22056C2.76572 7.15806 2.7609 7.09211 2.77067 7.02752C2.78043 6.96292 2.80452 6.90135 2.84118 6.84728C2.87784 6.79321 2.92615 6.74805 2.98253 6.71506C3.03894 6.6821 3.10199 6.66215 3.16708 6.65674C4.19055 6.36212 5.26258 6.27499 6.32019 6.40055C7.3778 6.52607 8.39967 6.8617 9.32573 7.38773C9.41982 7.44889 9.4868 7.54386 9.51286 7.653C9.53893 7.76218 9.52208 7.87717 9.4658 7.97424ZM9.52269 6.42037C7.77184 5.36985 4.84355 5.27355 3.15396 5.78568C3.02394 5.82517 2.88355 5.81136 2.76371 5.74731C2.64387 5.6833 2.55437 5.57429 2.5149 5.44426C2.47543 5.31426 2.48922 5.17387 2.55326 5.05401C2.61726 4.93419 2.72628 4.84468 2.8563 4.80522C4.7954 4.21868 8.01258 4.33248 10.048 5.53618C10.1526 5.61107 10.2252 5.7226 10.2514 5.8486C10.2775 5.97458 10.2553 6.10579 10.1891 6.21616C10.1229 6.32649 10.0175 6.40785 9.89408 6.44406C9.77061 6.4803 9.638 6.46872 9.52269 6.41162V6.42037Z" fill="#1ED760"/>
<path d="M3.23216 2.48167L2.85129 1.91163L2.85127 1.91165L3.23216 2.48167ZM1.21215 4.94307L0.578778 4.6807L0.578768 4.68072L1.21215 4.94307ZM0.900075 8.1119L1.57247 7.97817L1.57247 7.97814L0.900075 8.1119ZM2.40106 10.9201L1.91629 11.4049L1.9163 11.4049L2.40106 10.9201ZM8.37807 12.109L8.11571 11.4756L8.1157 11.4756L8.37807 12.109ZM10.1574 3.16377L9.67264 3.64854V3.64854L10.1574 3.16377ZM8.79608 9.46687L8.20997 9.11122L8.2087 9.11333L8.79608 9.46687ZM8.70546 9.5661L9.11067 10.1191L9.1109 10.1189L8.70546 9.5661ZM8.58352 9.62265L8.42311 8.95611L8.423 8.95613L8.58352 9.62265ZM8.32335 9.58068L8.68531 8.99843L8.68133 8.99599L8.32335 9.58068ZM3.50851 9.05103L3.35669 8.38244L3.34936 8.38419L3.50851 9.05103ZM3.376 9.05583L3.4867 8.37926L3.4863 8.37919L3.376 9.05583ZM3.25192 9.00919L2.88908 9.59088L2.88922 9.59096L3.25192 9.00919ZM3.10144 8.79716L3.77036 8.64669L3.76825 8.63787L3.10144 8.79716ZM3.09646 8.66381L2.41963 8.55474L2.41955 8.55522L3.09646 8.66381ZM3.14299 8.53874L2.55959 8.17867L2.55945 8.17889L3.14299 8.53874ZM3.23389 8.44109L2.83302 7.88493L2.83279 7.8851L3.23389 8.44109ZM3.35529 8.3857L3.20256 7.71734L3.19807 7.7184L3.35529 8.3857ZM8.6823 8.99851L8.32438 9.58323L8.32464 9.58339L8.6823 8.99851ZM8.83593 9.20916L8.16972 9.37094L8.16977 9.37111L8.83593 9.20916ZM9.4658 7.97424L10.0406 8.34785L10.0501 8.33322L10.0589 8.31813L9.4658 7.97424ZM8.87926 8.11432L9.22317 7.52114L9.21324 7.5156L8.87926 8.11432ZM3.41659 7.47525L3.22983 6.81561L3.15262 6.83746L3.08254 6.87656L3.41659 7.47525ZM3.23089 7.5298L3.27377 8.21403L3.27379 8.21402L3.23089 7.5298ZM2.88075 7.38864L3.38632 6.9256L3.38617 6.92544L2.88075 7.38864ZM2.78477 7.22056L2.12898 7.42042L2.12901 7.42051L2.78477 7.22056ZM2.98253 6.71506L2.63669 6.12312L2.63629 6.12335L2.98253 6.71506ZM3.16708 6.65674L3.22383 7.33996L3.29149 7.33434L3.35673 7.31556L3.16708 6.65674ZM6.32019 6.40055L6.23937 7.08134L6.23939 7.08134L6.32019 6.40055ZM9.32573 7.38773L9.69932 6.8129L9.68215 6.80174L9.66434 6.79162L9.32573 7.38773ZM9.51286 7.653L10.1797 7.49378L10.1797 7.49374L9.51286 7.653ZM9.52269 6.42037L9.16996 7.00824L10.2083 7.63123V6.42037H9.52269ZM3.15396 5.78568L2.95509 5.12959L2.95472 5.1297L3.15396 5.78568ZM2.76371 5.74731L3.08686 5.14268L3.08673 5.14261L2.76371 5.74731ZM2.5149 5.44426L3.17092 5.24513L3.1709 5.24509L2.5149 5.44426ZM2.55326 5.05401L3.15793 5.37707L3.15796 5.37702L2.55326 5.05401ZM2.8563 4.80522L2.65781 4.14901L2.65721 4.1492L2.8563 4.80522ZM10.048 5.53618L10.447 4.97873L10.4227 4.96131L10.3969 4.94608L10.048 5.53618ZM10.2514 5.8486L10.9227 5.70935L10.9226 5.70922L10.2514 5.8486ZM10.1891 6.21616L10.7769 6.56891L10.777 6.56883L10.1891 6.21616ZM9.89408 6.44406L9.70113 5.78621L9.70102 5.78624L9.89408 6.44406ZM9.52269 6.41162L9.8269 5.79724L8.83712 5.30715V6.41162H9.52269ZM6.27925 0.871804C5.0589 0.871804 3.86597 1.23367 2.85129 1.91163L3.61304 3.0517C4.40224 2.5244 5.33008 2.24294 6.27925 2.24294V0.871804ZM2.85127 1.91165C1.83663 2.58965 1.0458 3.55329 0.578778 4.6807L1.84553 5.20544C2.20878 4.32855 2.82389 3.57903 3.61306 3.05169L2.85127 1.91165ZM0.578768 4.68072C0.111777 5.80817 -0.0104121 7.04878 0.227681 8.24566L1.57247 7.97814C1.38729 7.04725 1.48232 6.08234 1.84554 5.20542L0.578768 4.68072ZM0.227677 8.24564C0.465733 9.44255 1.05337 10.542 1.91629 11.4049L2.88583 10.4353C2.21467 9.76417 1.75763 8.90909 1.57247 7.97817L0.227677 8.24564ZM1.9163 11.4049C2.77921 12.2678 3.87863 12.8554 5.07552 13.0935L5.34301 11.7487C4.4121 11.5635 3.55698 11.1065 2.88582 10.4353L1.9163 11.4049ZM5.07552 13.0935C6.27239 13.3316 7.51299 13.2094 8.64044 12.7424L8.1157 11.4756C7.23883 11.8388 6.27393 11.9339 5.34301 11.7487L5.07552 13.0935ZM8.64043 12.7424C9.76788 12.2754 10.7315 11.4845 11.4095 10.4699L10.2694 9.7081C9.74213 10.4973 8.99263 11.1124 8.11571 11.4756L8.64043 12.7424ZM11.4095 10.4699C12.0875 9.45519 12.4494 8.26226 12.4494 7.04193H11.0782C11.0782 7.99109 10.7968 8.91891 10.2694 9.7081L11.4095 10.4699ZM12.4494 7.04193C12.4494 5.4055 11.7993 3.83612 10.6422 2.679L9.67264 3.64854C10.5726 4.54852 11.0782 5.76914 11.0782 7.04193H12.4494ZM10.6422 2.679C9.48504 1.52186 7.91567 0.871804 6.27925 0.871804V2.24294C7.55202 2.24294 8.77263 2.74853 9.67264 3.64854L10.6422 2.679ZM8.2087 9.11333C8.23234 9.07405 8.26343 9.0401 8.30003 9.01326L9.1109 10.1189C9.22044 10.0386 9.31317 9.93718 9.38346 9.82041L8.2087 9.11333ZM8.30026 9.01309C8.33708 8.98611 8.37886 8.96676 8.42311 8.95611L8.74393 10.2892C8.87618 10.2574 9.00084 10.1996 9.11067 10.1191L8.30026 9.01309ZM8.423 8.95613C8.46745 8.94543 8.51349 8.94369 8.55846 8.95095L8.33999 10.3046C8.47429 10.3263 8.61165 10.321 8.74404 10.2892L8.423 8.95613ZM8.55846 8.95095C8.60328 8.95819 8.64642 8.97427 8.6853 8.99844L7.9614 10.1629C8.07712 10.2348 8.20583 10.2829 8.33999 10.3046L8.55846 8.95095ZM8.68133 8.99599C7.1996 8.08879 5.38415 7.92212 3.3567 8.38248L3.66032 9.71959C5.44973 9.31327 6.87338 9.49678 7.96537 10.1654L8.68133 8.99599ZM3.34936 8.38419C3.39417 8.3735 3.44088 8.37176 3.4867 8.37926L3.2653 9.7324C3.39925 9.75432 3.53599 9.7493 3.66766 9.71788L3.34936 8.38419ZM3.4863 8.37919C3.53183 8.38661 3.57541 8.40299 3.61461 8.42743L2.88922 9.59096C3.0041 9.66259 3.13211 9.71069 3.26571 9.73247L3.4863 8.37919ZM3.61475 8.42751C3.65384 8.4519 3.68772 8.48381 3.7144 8.52139L2.59639 9.31516C2.67476 9.42554 2.77424 9.51925 2.88908 9.59088L3.61475 8.42751ZM3.7144 8.52139C3.74133 8.55932 3.76024 8.60197 3.7703 8.64671L2.43259 8.94761C2.46224 9.07944 2.51777 9.20442 2.59639 9.31516L3.7144 8.52139ZM3.76825 8.63787C3.7789 8.68247 3.78047 8.7282 3.77338 8.77241L2.41955 8.55522C2.39823 8.68813 2.40311 8.8245 2.43464 8.95645L3.76825 8.63787ZM3.7733 8.77288C3.76614 8.81734 3.75027 8.86008 3.72652 8.89859L2.55945 8.17889C2.48855 8.29387 2.44109 8.42159 2.41963 8.55474L3.7733 8.77288ZM3.72639 8.89881C3.7025 8.93751 3.67138 8.97082 3.63498 8.99708L2.83279 7.8851C2.72358 7.96389 2.63063 8.06357 2.55959 8.17867L3.72639 8.89881ZM3.63475 8.99725C3.59815 9.02363 3.55663 9.04261 3.51252 9.053L3.19807 7.7184C3.06653 7.7494 2.9425 7.80602 2.83302 7.88493L3.63475 8.99725ZM3.50802 9.05404C5.47008 8.60568 7.07059 8.81576 8.32438 9.58323L9.04022 8.41379C7.40506 7.41287 5.41632 7.21149 3.20257 7.71736L3.50802 9.05404ZM8.32464 9.58339C8.24695 9.53588 8.19124 9.45952 8.16972 9.37094L9.50214 9.04738C9.438 8.78326 9.27176 8.55537 9.03996 8.41363L8.32464 9.58339ZM8.16977 9.37111C8.14825 9.28263 8.16269 9.18915 8.20997 9.11123L9.38219 9.82251C9.52322 9.59009 9.5663 9.3113 9.5021 9.04721L8.16977 9.37111ZM8.89097 7.60064C8.92569 7.54723 8.97953 7.50933 9.04124 7.49459L9.35976 8.82822C9.63977 8.76134 9.88359 8.58948 10.0406 8.34785L8.89097 7.60064ZM9.04124 7.49459C9.10311 7.47981 9.16822 7.48939 9.22313 7.52122L8.5354 8.70741C8.78448 8.85183 9.07958 8.89513 9.35976 8.82822L9.04124 7.49459ZM9.21324 7.5156C7.3903 6.49871 5.23826 6.24697 3.22983 6.81561L3.60335 8.13489C5.2622 7.66522 7.03966 7.87315 8.54528 8.71303L9.21324 7.5156ZM3.08254 6.87656C3.11499 6.85846 3.15102 6.84789 3.18798 6.84557L3.27379 8.21402C3.44112 8.20353 3.60408 8.1557 3.75063 8.07393L3.08254 6.87656ZM3.188 6.84557C3.22488 6.84326 3.26185 6.84923 3.29615 6.86306L2.78345 8.13474C2.93893 8.19742 3.10646 8.22451 3.27377 8.21403L3.188 6.84557ZM3.29615 6.86306C3.33039 6.87687 3.36124 6.89822 3.38632 6.9256L2.37517 7.85167C2.4885 7.97541 2.62803 8.07208 2.78345 8.13474L3.29615 6.86306ZM3.38617 6.92544C3.41121 6.95276 3.42976 6.98527 3.44053 7.02061L2.12901 7.42051C2.17788 7.5808 2.26203 7.72821 2.37532 7.85184L3.38617 6.92544ZM3.44056 7.02071C3.45133 7.05604 3.45407 7.09339 3.44854 7.12997L2.0928 6.92506C2.06774 7.09083 2.08011 7.26008 2.12898 7.42042L3.44056 7.02071ZM3.44854 7.12997C3.44301 7.16654 3.42936 7.20142 3.40862 7.23201L2.27374 6.46255C2.17968 6.60128 2.11785 6.7593 2.0928 6.92506L3.44854 7.12997ZM3.40862 7.23201C3.38777 7.26277 3.36042 7.28825 3.32877 7.30677L2.63629 6.12335C2.49188 6.20785 2.36792 6.32365 2.27374 6.46255L3.40862 7.23201ZM3.32837 7.30701C3.29675 7.32548 3.26106 7.33686 3.22383 7.33996L3.11032 5.97353C2.94291 5.98743 2.78113 6.03873 2.63669 6.12312L3.32837 7.30701ZM3.35673 7.31556C4.29242 7.0462 5.27249 6.96655 6.23937 7.08134L6.40101 5.71976C5.25266 5.58343 4.08867 5.67803 2.97742 5.99793L3.35673 7.31556ZM6.23939 7.08134C7.20628 7.19609 8.1405 7.50293 8.98712 7.98384L9.66434 6.79162C8.65884 6.22046 7.54931 5.85605 6.40099 5.71976L6.23939 7.08134ZM8.95214 7.96257C8.8987 7.92784 8.86079 7.87398 8.84605 7.81227L10.1797 7.49374C10.1128 7.21375 9.94095 6.96994 9.69932 6.8129L8.95214 7.96257ZM8.84604 7.81223C8.8313 7.75051 8.84081 7.6854 8.87272 7.63036L10.0589 8.31813C10.2034 8.06895 10.2466 7.77385 10.1797 7.49378L8.84604 7.81223ZM9.87542 5.83251C8.87697 5.23343 7.59192 4.92972 6.36909 4.83357C5.14318 4.73718 3.89993 4.8432 2.95509 5.12959L3.35283 6.44177C4.09758 6.21603 5.16328 6.11413 6.26162 6.20049C7.36304 6.28709 8.41756 6.55679 9.16996 7.00824L9.87542 5.83251ZM2.95472 5.1297C2.99878 5.11632 3.0463 5.12101 3.08686 5.14268L2.44057 6.35195C2.7208 6.50172 3.04911 6.53402 3.35321 6.44166L2.95472 5.1297ZM3.08673 5.14261C3.12731 5.16429 3.15758 5.20118 3.17092 5.24513L1.85889 5.64338C1.95117 5.94739 2.16043 6.20231 2.44069 6.35202L3.08673 5.14261ZM3.1709 5.24509C3.18426 5.28907 3.17959 5.33653 3.15793 5.37707L1.94858 4.73095C1.79884 5.01121 1.76661 5.33946 1.8589 5.64343L3.1709 5.24509ZM3.15796 5.37702C3.13627 5.41763 3.09937 5.4479 3.0554 5.46124L2.65721 4.1492C2.3532 4.24146 2.09825 4.45074 1.94855 4.73101L3.15796 5.37702ZM3.0548 5.46143C3.92595 5.19792 5.12642 5.08252 6.36057 5.18268C7.59645 5.28298 8.79893 5.594 9.69899 6.12628L10.3969 4.94608C9.26162 4.27466 7.83782 3.92693 6.47148 3.81604C5.10343 3.70501 3.72575 3.82598 2.65781 4.14901L3.0548 5.46143ZM9.64891 6.09363C9.61353 6.06831 9.58897 6.03059 9.58012 5.98798L10.9226 5.70922C10.8615 5.4146 10.6916 5.15384 10.447 4.97873L9.64891 6.09363ZM9.5801 5.98785C9.57124 5.94518 9.57879 5.90078 9.60116 5.86348L10.777 6.56883C10.9317 6.31081 10.9838 6.00397 10.9227 5.70935L9.5801 5.98785ZM9.60121 5.86341C9.62364 5.82602 9.6593 5.79847 9.70113 5.78621L10.087 7.10192C10.3758 7.01723 10.6221 6.82695 10.7769 6.56891L9.60121 5.86341ZM9.70102 5.78624C9.74286 5.77396 9.7878 5.77788 9.8269 5.79724L9.21848 7.026C9.4882 7.15955 9.79835 7.18665 10.0872 7.10188L9.70102 5.78624ZM8.83712 6.41162V6.42037H10.2083V6.41162H8.83712Z" fill="black" mask="url(#path-1-outside-1_447_372)"/>
</svg>
